<?xml version="1.0" standalone="no"?>
<!DOCTYPE svg PUBLIC "-//W3C//DTD SVG 20010904//EN"
 "http://www.w3.org/TR/2001/REC-SVG-20010904/DTD/svg10.dtd">
<svg version="1.0" xmlns="http://www.w3.org/2000/svg"
 width="413.000000pt" height="401.000000pt" viewBox="0 0 413.000000 401.000000"
 preserveAspectRatio="xMidYMid meet">
<metadata>
Created by potrace 1.16, written by Peter Selinger 2001-2019
</metadata>
<g transform="translate(0.000000,401.000000) scale(0.100000,-0.100000)"
fill="#000000" stroke="none">
<path d="M0 2005 l0 -2005 2065 0 2065 0 0 2005 0 2005 -2065 0 -2065 0 0
-2005z m2980 -30 l0 -905 -230 0 -230 0 0 35 0 35 195 0 195 0 0 835 0 835
-837 -2 -838 -3 -3 -537 -2 -538 -35 0 -35 0 0 575 0 575 910 0 910 0 0 -905z
m-1482 -400 c2 -2 0 -30 -4 -63 l-6 -60 -54 5 c-41 4 -60 2 -80 -11 -44 -30
-54 -71 -54 -231 l0 -145 -70 0 -70 0 0 250 0 250 70 0 70 0 0 -33 0 -34 40
38 c22 21 52 40 67 42 25 4 84 -1 91 -8z m444 -13 c159 -71 199 -289 77 -412
-56 -55 -111 -75 -209 -74 -127 1 -197 40 -247 138 -65 125 -6 299 116 348 81
33 191 32 263 0z m397 -348 c37 -46 27 -105 -21 -130 -87 -45 -168 53 -107
130 16 21 29 26 64 26 35 0 48 -5 64 -26z"/>
<path d="M1755 1452 c-47 -23 -78 -70 -78 -121 0 -143 178 -191 253 -69 69
113 -54 247 -175 190z"/>
</g>
</svg>
