<?xml version="1.0" standalone="no"?>
<!DOCTYPE svg PUBLIC "-//W3C//DTD SVG 20010904//EN"
 "http://www.w3.org/TR/2001/REC-SVG-20010904/DTD/svg10.dtd">
<svg version="1.0" xmlns="http://www.w3.org/2000/svg"
 width="1081.000000pt" height="1081.000000pt" viewBox="0 0 1081.000000 1081.000000"
 preserveAspectRatio="xMidYMid meet">
<metadata>
Created by potrace 1.16, written by Peter Selinger 2001-2019
</metadata>
<g transform="translate(0.000000,1081.000000) scale(0.100000,-0.100000)"
fill="#000000" stroke="none">
<path d="M0 5405 l0 -5405 5405 0 5405 0 0 5405 0 5405 -5405 0 -5405 0 0
-5405z m7918 3 l2 -2498 -645 0 -645 0 0 100 0 100 545 0 545 0 0 2295 0 2295
-2310 0 -2310 0 0 -1490 0 -1490 -100 0 -100 0 0 1595 0 1595 2508 -2 2507 -3
3 -2497z m-4122 -1092 c22 -8 38 -19 37 -27 -1 -8 -12 -90 -24 -182 -12 -92
-25 -166 -28 -164 -60 33 -93 41 -176 42 -79 0 -97 -3 -147 -28 -101 -49 -153
-138 -168 -284 -5 -48 -10 -240 -10 -425 l0 -338 -190 0 -190 0 0 690 0 690
190 0 189 0 3 -96 3 -97 40 58 c36 53 107 115 163 145 75 38 224 46 308 16z
m1076 10 c156 -30 260 -81 364 -179 108 -100 170 -207 204 -349 86 -360 -110
-728 -450 -842 -225 -75 -488 -60 -690 40 -77 38 -109 62 -175 128 -89 89
-138 171 -177 296 -33 108 -33 302 0 410 39 124 88 206 177 296 111 112 212
165 375 199 87 18 281 18 372 1z m1208 -964 c138 -69 168 -259 59 -377 -105
-114 -301 -95 -383 38 -22 36 -30 62 -33 114 -4 60 -1 74 24 122 34 66 85 109
150 127 61 17 114 10 183 -24z"/>
<path d="M4565 3983 c-155 -56 -248 -190 -247 -358 0 -93 17 -147 68 -222 72
-104 189 -158 328 -151 100 5 171 36 240 103 185 179 131 506 -102 613 -76 35
-212 42 -287 15z"/>
</g>
</svg>
