<?xml version="1.0" standalone="no"?>
<!DOCTYPE svg PUBLIC "-//W3C//DTD SVG 20010904//EN"
 "http://www.w3.org/TR/2001/REC-SVG-20010904/DTD/svg10.dtd">
<svg version="1.0" xmlns="http://www.w3.org/2000/svg"
 width="1081.000000pt" height="1080.000000pt" viewBox="0 0 1081.000000 1080.000000"
 preserveAspectRatio="xMidYMid meet">
<metadata>
Created by potrace 1.16, written by Peter Selinger 2001-2019
</metadata>
<g transform="translate(0.000000,1080.000000) scale(0.100000,-0.100000)"
fill="#000000" stroke="none">
<path d="M2900 6305 l0 -1595 100 0 100 0 0 1495 0 1495 2310 0 2310 0 0
-2300 0 -2300 -545 0 -545 0 0 -100 0 -100 645 0 645 0 0 2500 0 2500 -2510 0
-2510 0 0 -1595z"/>
<path d="M4570 4329 c-311 -36 -546 -231 -627 -520 -13 -47 -17 -100 -17 -199
0 -125 2 -141 31 -223 17 -48 46 -113 64 -144 44 -73 159 -188 232 -232 144
-85 352 -125 540 -104 199 23 340 86 462 208 82 82 135 168 172 280 25 72 27
94 27 225 0 133 -2 152 -28 225 -98 283 -315 450 -631 485 -101 11 -119 11
-225 -1z m255 -357 c97 -38 160 -99 209 -202 27 -57 30 -75 30 -150 -1 -156
-75 -275 -212 -342 -61 -30 -74 -33 -162 -33 -82 0 -103 4 -152 27 -283 132
-299 533 -28 677 34 18 82 37 108 41 60 11 155 2 207 -18z"/>
<path d="M3560 4316 c-104 -30 -185 -90 -243 -179 l-32 -50 -3 102 -3 101
-187 -2 -187 -3 -3 -692 -2 -693 190 0 190 0 0 343 c0 365 9 489 39 560 26 61
75 113 135 145 45 24 62 27 151 27 84 0 107 -4 141 -22 l41 -22 22 162 c28
209 28 203 -11 217 -50 18 -186 22 -238 6z"/>
<path d="M5900 3381 c-184 -60 -240 -273 -108 -408 134 -137 366 -68 409 120
23 106 -28 216 -124 266 -51 26 -134 36 -177 22z"/>
</g>
</svg>
